<svg width="64" height="64" viewBox="0 0 64 64" fill="none" xmlns="http://www.w3.org/2000/svg">
    <path d="M12.1379 28.4908L5 2.41812H8.19562L13.6312 23.6526H13.8701L19.455 2.41812H23.009L28.564 23.6526H28.8328L34.2683 2.41812H37.4639L30.326 28.4908H27.0707L21.3365 7.70433H21.1274L15.3634 28.4609H12.108L12.1379 28.4908ZM49.3803 21.0841V20.9348C49.3803 19.3221 49.5595 18.0378 49.888 17.0821C50.2165 16.1264 50.6645 15.3499 51.2618 14.7526C51.8591 14.1553 52.5759 13.6177 53.4121 13.11C53.9199 12.8113 54.3679 12.453 54.7561 12.0348C55.1444 11.6167 55.4729 11.1389 55.7118 10.5714C55.9507 10.004 56.0702 9.40667 56.0702 8.74963C56.0702 7.91339 55.8611 7.19661 55.4729 6.5993C55.0846 5.97212 54.5769 5.52414 53.9199 5.19562C53.2628 4.8671 52.546 4.6879 51.7397 4.6879C51.0528 4.6879 50.3659 4.83723 49.7387 5.10602C49.1115 5.37481 48.5441 5.85266 48.1259 6.47984C47.678 7.10702 47.439 7.91339 47.3793 8.89895H44.1837C44.2434 7.4654 44.6317 6.21105 45.3186 5.19562C46.0055 4.18019 46.9014 3.37382 48.0363 2.83624C49.1712 2.29866 50.3957 2.02987 51.7695 2.02987C53.2628 2.02987 54.5769 2.32852 55.6819 2.92583C56.787 3.52315 57.6531 4.32952 58.2504 5.37481C58.8477 6.42011 59.1463 7.58487 59.1463 8.89895C59.1463 9.82479 58.997 10.661 58.7282 11.4375C58.4594 12.1842 58.0413 12.8711 57.5037 13.4684C56.9662 14.0657 56.339 14.6033 55.5923 15.0513C54.8457 15.5291 54.2484 16.007 53.8004 16.5147C53.3524 17.0224 53.0239 17.6496 52.8148 18.3365C52.6058 19.0533 52.5162 19.9194 52.4863 20.9647V21.114H49.44L49.3803 21.0841ZM50.993 28.6103C50.3659 28.6103 49.8283 28.3713 49.3803 27.9233C48.9323 27.4754 48.6934 26.9378 48.6934 26.3106C48.6934 25.6834 48.9323 25.1458 49.3803 24.6979C49.8283 24.2499 50.3659 24.0109 50.993 24.0109C51.6202 24.0109 52.1578 24.2499 52.6058 24.6979C53.0538 25.1458 53.2927 25.6834 53.2927 26.3106C53.2927 26.7287 53.1732 27.117 52.994 27.4455C52.785 27.8039 52.5162 28.0727 52.1578 28.2817C51.7994 28.4908 51.441 28.5804 50.993 28.5804V28.6103ZM8.25535 61.9403V35.8676H17.0657C19.0966 35.8676 20.769 36.226 22.0831 36.9129C23.3972 37.5998 24.3529 38.5555 24.9801 39.7501C25.6073 40.9447 25.9358 42.3186 25.9358 43.8716C25.9358 45.4246 25.6073 46.7685 24.9801 47.9632C24.3529 49.1578 23.3972 50.0836 22.0831 50.7705C20.7989 51.4574 19.1264 51.786 17.0956 51.786H9.98756V48.9189H17.006C18.4097 48.9189 19.5147 48.7098 20.3808 48.3216C21.2469 47.9034 21.8442 47.336 22.2325 46.5893C22.6207 45.8427 22.7999 44.9467 22.7999 43.9014C22.7999 42.8561 22.5908 41.9602 22.2026 41.1538C21.8143 40.3773 21.1872 39.78 20.3211 39.332C19.455 38.9139 18.3201 38.7048 16.9164 38.7048H11.3614V61.9701H8.25535V61.9403ZM20.5301 50.2329L26.9512 61.9403H23.2778L16.9761 50.2329H20.5301ZM45.438 62H37.4042V35.9273H45.7964C48.335 35.9273 50.4853 36.435 52.2773 37.4803C54.0692 38.5256 55.443 40.0189 56.3987 41.9602C57.3544 43.9014 57.8323 46.231 57.8323 48.9189C57.8323 51.6068 57.3544 53.9661 56.3688 55.9373C55.4132 57.9084 54.0095 59.4017 52.1578 60.447C50.3061 61.4923 48.0662 62.0299 45.4082 62.0299L45.438 62ZM40.5401 59.1926H45.229C47.3793 59.1926 49.1712 58.7745 50.5749 57.9383C51.9786 57.102 53.0538 55.9373 53.7407 54.3843C54.4276 52.8611 54.786 51.0095 54.786 48.889C54.786 46.7685 54.4276 44.9766 53.7407 43.4535C53.0538 41.9303 52.0383 40.7656 50.6645 39.9293C49.2907 39.1229 47.5884 38.7048 45.5575 38.7048H40.5102V59.1628L40.5401 59.1926Z" fill="#7F53AC"/>
</svg>